<?xml version="1.0" encoding="UTF-8"?>
<svg id="Layer_1" xmlns="http://www.w3.org/2000/svg" xmlns:xlink="http://www.w3.org/1999/xlink" version="1.1" viewBox="0 0 190 20">
  <!-- Generator: Adobe Illustrator 29.2.1, SVG Export Plug-In . SVG Version: 2.1.0 Build 116)  -->
  <defs>
    <style>
      .st0 {
        fill: none;
      }

      .st1 {
        fill: #fcfcfc;
      }

      .st2 {
        clip-path: url(#clippath);
      }
    </style>
    <clipPath id="clippath">
      <rect class="st0" width="190" height="20"/>
    </clipPath>
  </defs>
  <g class="st2">
    <g>
      <path class="st1" d="M0,13.9l2.9-.4c.3,2.8,1.8,4,5,4s4.2-1.4,4.2-3.2-1.3-2.4-3.2-2.9l-3.5-.8c-2.6-.6-5-2-5-5.1S2.6,0,7.7,0s7.1,2.4,7.5,5.5l-3,.4c-.3-2.3-1.7-3.4-4.5-3.4s-4.1,1-4.1,2.8,1.3,2.3,3,2.7l3.6.8c2.6.6,5.1,1.9,5.1,5.2,0,3.5-2.7,5.9-7.2,5.9S.3,17.7,0,13.9h0Z"/>
      <path class="st1" d="M25.7,2.8h-7.5V.3h18v2.5h-7.5v16.8h-2.9V2.8h0Z"/>
      <path class="st1" d="M38.8,10.1c0-6.5,4-10.1,9.6-10.1s9.6,3.6,9.6,10.1-4,9.9-9.6,9.9-9.6-3.4-9.6-9.9ZM48.4,17.4c3.9,0,6.6-2.3,6.6-7.4s-2.7-7.5-6.6-7.5-6.6,2.4-6.6,7.5,2.7,7.4,6.6,7.4Z"/>
      <path class="st1" d="M62,10.1c0-6.5,3.9-10.1,9.6-10.1s7.8,3.3,8.2,6.2l-3,.4c-.2-1.9-1.6-4.1-5.2-4.1s-6.6,2.4-6.6,7.5,2.7,7.4,6.6,7.4,5.1-1.5,5.5-4.7l3,.4c-.6,4.2-3.4,6.8-8.4,6.8s-9.6-3.4-9.6-9.9h0Z"/>
      <path class="st1" d="M84.7.3h2.9v10.1c1.1-1.3,2.3-2.7,3.7-4.2l5.7-5.9h3.7v.2l-7.9,8,8.3,11.1h-3.7l-6.6-9.1-3.1,3.2v5.9h-2.9V.3h0Z"/>
      <path class="st1" d="M105.2.3h5l4,11.7c.6,1.9,1.2,3.5,1.7,5.2h.1c.5-1.8,1-3.4,1.6-5.2L121.8.3h4.8v19.4h-2.9v-10.4c0-2.1,0-4.8,0-6.7h-.2c-.7,2.5-1.6,5.1-2.5,7.8l-3.3,9.3h-3.9l-3.3-9.5c-1-2.8-1.7-5.1-2.5-7.6h-.2c0,1.9,0,4.6,0,6.7v10.4h-2.7V.3Z"/>
      <path class="st1" d="M137.9.3h4.2l7.1,19.4h-3.2l-2.4-6.9h-7.6l-2.5,6.9h-3L137.9.3ZM143.6,12.8l-3.6-10.5h-.2l-3.8,10.5h7.6,0Z"/>
      <path class="st1" d="M153,.3h9.2c3.6,0,6.3,1.7,6.3,5.6s-2.1,4.9-5.1,5.2v.2c1.5.4,2,1,2.6,2.2l3,6.2h-3.3l-3.1-6.6c-.6-1.3-1.6-1.5-3.1-1.5h-3.5v8.1h-2.9V.3ZM161.8,9.1c2.8,0,3.7-1.5,3.7-3.1s-.8-3.1-3.7-3.1h-5.9v6.2h5.9Z"/>
      <path class="st1" d="M173.6.3h2.9v10.1c1.1-1.3,2.3-2.7,3.7-4.2l5.7-5.9h3.7v.2l-7.9,8,8.3,11.1h-3.7l-6.6-9.1-3.1,3.2v5.9h-2.9V.3Z"/>
      <path class="st1" d="M126.6,11.7h-2.9v8h2.9v-8Z"/>
      <path class="st1" d="M141.2,14h-2.7v5.7h2.7v-5.7Z"/>
    </g>
  </g>
</svg>