<svg width="190" height="20" viewBox="0 0 190 20" fill="none" xmlns="http://www.w3.org/2000/svg">
<g clip-path="url(#clip0_34_1129)">
<path d="M0 13.9095L2.93357 13.4602C3.2295 16.2558 4.75418 17.4665 7.95795 17.4665C10.8079 17.4665 12.1975 16.0936 12.1975 14.3027C12.1975 12.5117 10.8658 11.8814 9.04517 11.4321L5.57121 10.6396C2.93357 10.0094 0.598293 8.66147 0.598293 5.5039C0.598293 2.63339 2.60547 0 7.66202 0C12.4419 0 14.8029 2.37129 15.131 5.5039L12.1717 5.9532C11.8436 3.66303 10.4605 2.5273 7.66202 2.5273C5.19164 2.5273 3.58976 3.52574 3.58976 5.32293C3.58976 7.12012 4.86355 7.66927 6.54906 8.03744L10.1324 8.87988C12.77 9.48518 15.1825 10.7769 15.1825 14.0967C15.2082 17.6287 12.5191 20 7.95795 20C3.04293 20 0.328096 17.7348 0 13.9158L0 13.9095Z" fill="#000000"/>
<path d="M25.6621 2.84555H18.1416V0.318253H36.0968V2.84555H28.6021V19.6817H25.6685V2.84555H25.6621Z" fill="#000000"/>
<path d="M38.812 10.0655C38.812 3.55694 42.8585 0 48.4297 0C54.0009 0 58.0475 3.55694 58.0475 10.0655C58.0475 16.5741 54.0009 20 48.4297 20C42.8585 20 38.812 16.5741 38.812 10.0655ZM48.4233 17.4415C52.3605 17.4415 55.0496 15.1763 55.0496 10.0655C55.0496 4.95476 52.3605 2.5273 48.4233 2.5273C44.4861 2.5273 41.797 4.94852 41.797 10.0655C41.797 15.1825 44.4861 17.4415 48.4233 17.4415Z" fill="#000000"/>
<path d="M62.0039 10.0655C62.0039 3.55694 65.9411 0 71.6216 0C77.3022 0 79.4702 3.34477 79.7983 6.19033L76.839 6.61467C76.5946 4.69267 75.2371 2.53354 71.6216 2.53354C67.6845 2.53354 64.9954 4.95476 64.9954 10.0718C64.9954 15.1888 67.6845 17.4727 71.6216 17.4727C74.5809 17.4727 76.7554 15.9438 77.0835 12.8112L80.0685 13.1794C79.4445 17.3417 76.6203 20.0062 71.6216 20.0062C65.9475 20.0062 62.0039 16.5803 62.0039 10.0718V10.0655Z" fill="#000000"/>
<path d="M84.6812 0.318253H87.6148V10.4649C88.6763 9.12325 89.9501 7.72543 91.3332 6.22153L97.0074 0.318253H100.674V0.530421L92.7421 8.56786L101.054 19.688H97.3612L90.7349 10.6271L87.6084 13.791V19.6942H84.6748V0.318253H84.6812Z" fill="#000000"/>
<path d="M105.235 0.318253H110.234L114.197 12.0437C114.821 13.9158 115.368 15.5195 115.882 17.2855H115.992C116.481 15.5195 116.995 13.9158 117.619 12.0437L121.801 0.318253H126.639V19.6817H123.731V9.27301C123.731 7.19501 123.757 4.4493 123.757 2.58346H123.57C122.862 5.06084 121.994 7.64431 121.074 10.4087L117.812 19.6817H113.901L110.614 10.1466C109.661 7.38222 108.902 5.06084 108.143 2.58346H107.95C107.95 4.45554 107.976 7.19501 107.976 9.27301V19.6817H105.235V0.318253Z" fill="#000000"/>
<path d="M137.884 0.318253H142.091L149.155 19.6817H145.951L143.59 12.805H136.012L133.516 19.6817H130.531L137.884 0.318253ZM143.584 12.805L140.001 2.32137H139.84L136.012 12.805H143.59H143.584Z" fill="#000000"/>
<path d="M153.035 0.318253H162.273C165.914 0.318253 168.545 2.03432 168.545 5.92824C168.545 8.85491 166.48 10.8268 163.437 11.0952L163.412 11.2512C164.93 11.7005 165.451 12.2246 166.017 13.4353L169.034 19.6817H165.721L162.627 13.0671C162.003 11.7504 160.999 11.5944 159.5 11.5944H155.968V19.6817H153.035V0.318253ZM161.835 9.06084C164.685 9.06084 165.528 7.58814 165.528 5.92824C165.528 4.16225 164.685 2.84555 161.835 2.84555H155.968V9.06084H161.835Z" fill="#000000"/>
<path d="M173.621 0.318253H176.555V10.4649C177.616 9.12325 178.89 7.72543 180.273 6.22153L185.947 0.318253H189.614V0.530421L181.682 8.56786L189.994 19.688H186.301L179.675 10.6271L176.555 13.791V19.6942H173.621V0.318253Z" fill="#000000"/>
<path d="M126.645 11.6817H123.737V19.6755H126.645V11.6817Z" fill="#000000"/>
<path d="M141.174 14.0156H138.499V19.6818H141.174V14.0156Z" fill="#000000"/>
</g>
<defs>
<clipPath id="clip0_34_1129">
<rect width="190" height="20" fill="white"/>
</clipPath>
</defs>
</svg>
